<?xml version="1.0" encoding="UTF-8" standalone="no"?>
<!-- Created with Inkscape (http://www.inkscape.org/) -->

<svg
   width="867.49829mm"
   height="881.41895mm"
   viewBox="0 0 867.49829 881.41895"
   version="1.1"
   id="svg1"
   inkscape:version="1.3.2 (091e20e, 2023-11-25)"
   sodipodi:docname="pleaseprint_logo.svg"
   xmlns:inkscape="http://www.inkscape.org/namespaces/inkscape"
   xmlns:sodipodi="http://sodipodi.sourceforge.net/DTD/sodipodi-0.dtd"
   xmlns="http://www.w3.org/2000/svg"
   xmlns:svg="http://www.w3.org/2000/svg">
  <sodipodi:namedview
     id="namedview1"
     pagecolor="#ffffff"
     bordercolor="#000000"
     borderopacity="0.25"
     inkscape:showpageshadow="2"
     inkscape:pageopacity="0.0"
     inkscape:pagecheckerboard="0"
     inkscape:deskcolor="#d1d1d1"
     inkscape:document-units="mm"
     inkscape:zoom="0.2102413"
     inkscape:cx="1640.9716"
     inkscape:cy="1662.3756"
     inkscape:window-width="2560"
     inkscape:window-height="1654"
     inkscape:window-x="0"
     inkscape:window-y="25"
     inkscape:window-maximized="1"
     inkscape:current-layer="layer1" />
  <defs
     id="defs1" />
  <g
     inkscape:label="Layer 1"
     inkscape:groupmode="layer"
     id="layer1"
     transform="translate(329.40625,292.09998)">
    <path
       style="fill:#000000;stroke-width:0.838946"
       d="m 83.623005,589.18773 c -93.689539,-2.25695 -156.338824,-6.76727 -187.176915,-13.47549 -13.03017,-2.83446 -16.93484,-8.1126 -9.02679,-12.20206 7.88536,-4.0777 45.804168,-10.79296 79.310551,-14.04564 7.690353,-0.74657 14.572298,-1.80901 15.293234,-2.36104 0.720937,-0.55194 1.651397,-3.01953 2.067666,-5.48343 1.334876,-7.90112 7.8349476,-19.15263 15.02849212,-26.01413 7.69815778,-7.34279 15.93217588,-11.50347 25.96200088,-13.11878 3.866383,-0.62264 7.232968,-1.33524 7.481332,-1.58358 0.248338,-0.24842 -0.09623,-2.627 -0.765731,-5.2858 -2.016839,-8.00957 -15.923524,-91.07161 -17.527587,-104.68887 -0.821425,-6.97334 -1.766729,-12.95208 -2.100659,-13.28598 -0.333931,-0.33398 -9.3099997,0.58952 -19.9468316,2.05221 -17.0343774,2.34236 -23.4063374,2.64949 -53.4567864,2.57625 -33.860872,-0.0822 -96.184161,-3.47339 -113.537361,-6.17741 -4.3066,-0.67098 -16.13575,-3.91647 -26.28699,-7.21209 -10.15124,-3.29555 -23.23881,-6.7859 -29.08345,-7.75631 -16.43854,-2.72926 -24.90459,-5.60182 -43.06591,-14.61241 -20.09005,-9.96755 -29.09681,-16.52281 -40.61815,-29.56253 -9.94224,-11.25255 -18.17875,-26.07178 -14.81412,-26.65384 1.05852,-0.18306 9.68518,0.996 19.17036,2.62028 10.38944,1.77908 23.80953,3.19915 33.75556,3.5719 l 16.50974,0.61873 -2.84165,-6.42541 c -4.42513,-10.00604 -14.46911,-44.20927 -18.24731,-62.13847 -5.17459,-24.55569 -6.69319,-36.47914 -9.68727,-76.06054 -0.85606,-11.31686 1.18801,-62.574803 3.32325,-83.33536 1.74003,-16.918014 3.27064,-27.981381 7.27366,-52.573898 1.20171,-7.3827193 2.80429,-18.3854964 3.56129,-24.4506724 l 1.37636,-11.0274366 11.18947,0.400844 c 11.12567,0.398489 11.19396,0.384837 11.97324,-2.395696 0.43106,-1.53805 0.83394,-5.861976 0.89527,-9.608794 0.31705,-19.370994 12.01275,-43.844661 29.11835,-60.931056 12.31352,-12.299711 28.35709,-21.589761 43.70181,-25.305621 13.0547,-3.16132 41.94572,-2.84766 55.37044,0.60118 12.19906,3.13389 32.218099,12.48545 43.65937,20.394855 15.809568,10.929117 37.031057,36.426033 46.063032,55.343189 l 4.239551,8.879575 0.698182,-32.998518 c 0.727287,-34.375751 1.433301,-42.419721 6.086978,-69.352931 6.669617,-38.60032 19.245077,-77.99101 31.465969,-98.56247 15.884684,-26.73874 35.044936,-44.53623 57.493984,-53.40464 16.648192,-6.57683 9.270762,-6.32161 179.988504,-6.22514 l 157.16263,0.0888 8.88838,3.053 c 4.8886,1.67915 11.3511,4.86077 14.36108,7.0703 12.3883,9.09384 23.67211,27.3307 27.19401,43.95081 2.45451,11.58325 1.65364,29.31613 -1.76816,39.15085 -4.1521,11.9335 -10.01988,22.16973 -15.09022,26.32453 -15.35263,12.58033 -35.26626,14.35219 -61.16362,5.44224 -6.25057,-2.15048 -14.561,-4.57999 -18.46771,-5.39895 l -7.10303,-1.48889 -1.75389,6.29698 c -0.96462,3.46334 -2.21332,7.80714 -2.77482,9.65282 -0.5615,1.84568 -2.54704,10.90631 -4.41235,20.13471 -6.58556,32.58264 -8.7404,60.630039 -6.78908,88.368955 1.15322,16.394776 4.37359,46.5822527 5.04257,47.2693491 0.15443,0.1586442 3.25511,-0.1100666 6.89043,-0.5970852 7.17156,-0.9608343 41.62565,0.2451365 55.44762,1.94063939 9.99368,1.22597332 21.29187,5.95182851 28.65647,11.98652171 l 4.99215,4.090723 2.12807,-2.702348 c 17.45427,-22.1635083 25.35068,-37.926219 30.77314,-61.428471 2.26824,-9.830858 2.74317,-50.971581 0.64706,-56.052504 -0.94028,-2.27942 -2.25483,-3.08716 -5.99813,-3.68573 -11.84114,-1.89352 -21.98222,-9.67105 -27.66735,-21.21921 -3.02463,-6.14386 -3.50845,-8.33192 -3.50845,-15.86474 0,-11.35673 2.26631,-16.03915 12.38131,-25.58113 10.71478,-10.1078 15.04392,-12.7213 24.25268,-14.64138 6.96595,-1.45238 8.98068,-1.45682 16.40862,-0.0352 13.03882,2.49478 17.87861,5.17228 28.12859,15.56162 17.08817,17.32045 21.97553,32.98937 23.5984,75.656233 0.68482,18.004552 -1.21237,40.295169 -4.75213,55.834891 -4.69357,20.604347 -18.07713,51.242565 -29.68979,67.966798 -18.91398,27.239489 -44.82809,53.490283 -61.09928,61.893079 -2.61474,1.350301 -4.8627,2.530104 -4.9956,2.621783 -0.13279,0.0917 -0.51183,41.191176 -0.84222,91.332206 l -0.60084,91.16543 -3.16569,9.5081 c -3.54438,10.6454 -10.19371,22.68225 -16.2066,29.33787 -5.9346,6.56886 -16.64367,13.77926 -24.28555,16.3513 -11.65907,3.92428 -87.30527,13.5963 -106.33776,13.5963 -4.78536,0 -7.39111,0.47284 -7.70538,1.39827 -0.26125,0.76907 -1.78284,12.97573 -3.38145,27.12591 -2.8171,24.93682 -3.82635,32.84046 -8.42698,65.99711 -1.19507,8.61322 -2.95468,23.21089 -3.91023,32.4393 -1.68235,16.24644 -7.41251,59.417 -9.31113,70.14863 l -0.93242,5.27026 4.58451,0.56396 c 2.52153,0.31015 14.65194,1.31024 26.95652,2.22245 12.30447,0.91218 31.93582,3.22649 43.62519,5.14289 32.78341,5.37464 41.29177,7.99986 40.61833,12.53294 -1.82814,12.30717 -84.22323,20.30124 -220.71211,21.4136 -27.07002,0.22064 -55.761995,0.24355 -63.759925,0.0512 z m 78.414115,-42.33021 c 3.30713,-6.98473 12.92841,-16.66113 19.15165,-19.26137 5.76966,-2.4107 19.66949,-3.18043 28.78087,-1.59375 4.17301,0.72671 7.86395,1.04458 8.20203,0.70641 1.23822,-1.23811 -8.30328,-8.40248 -13.59879,-10.21074 -7.35454,-2.51146 -20.48589,-1.75012 -28.10647,1.62957 -10.22062,4.53265 -20.82298,17.60301 -22.42963,27.65075 -0.63357,3.96216 -0.41069,4.63399 1.90733,5.74845 1.44359,0.69408 2.75711,1.29608 2.91885,1.3377 0.16177,0.0419 1.59015,-2.66155 3.17416,-6.00702 z M 6.0437064,544.84412 c 4.6657156,-7.28556 11.2198946,-13.73505 17.1305266,-16.85684 3.62548,-1.9149 6.50965,-2.39334 14.5864,-2.41969 5.537041,-0.0185 12.710028,0.36192 15.939955,0.84457 6.957986,1.0396 7.527237,-0.11218 2.415487,-4.88728 -4.527709,-4.22947 -10.735733,-5.91375 -21.711232,-5.89033 -11.232806,0.0243 -18.702734,3.01527 -25.2397942,10.10711 -6.0436653,6.55663 -12.3662544,20.9125 -10.523458,23.89428 1.44340794,2.33537 3.8253194,0.79348 7.4021156,-4.79182 z M 240.12682,543.15256 c 0.98735,-4.76377 8.21479,-61.78518 11.30705,-89.208 1.52622,-13.53494 4.28601,-36.43818 6.1328,-50.89607 3.53841,-27.70085 6.37993,-57.77355 5.53353,-58.56383 -0.27612,-0.25781 -3.07073,-0.81436 -6.21022,-1.23685 l -5.7082,-0.76814 -0.77854,12.66659 c -0.4282,6.96661 -2.25399,26.5091 -4.05731,43.42786 -1.80332,16.91878 -4.28871,42.33887 -5.52304,56.4891 -1.23442,14.15018 -3.26316,36.55004 -4.50842,49.77744 -1.24516,13.22742 -2.58503,27.95092 -2.97733,32.7189 l -0.71327,8.6691 h 3.43263 c 2.84453,0 3.54195,-0.52713 4.07032,-3.0761 z M 87.710182,531.68695 c 1.065054,-7.07509 2.480442,-19.65928 3.145314,-27.96485 0.664766,-8.30556 2.445676,-25.42008 3.957479,-38.03229 1.511776,-12.61213 3.039824,-25.69969 3.395715,-29.08339 0.355785,-3.38381 2.10542,-15.46464 3.88792,-26.84638 1.7825,-11.38163 4.29181,-30.00624 5.57631,-41.38798 1.28441,-11.38174 2.57656,-21.50488 2.87147,-22.4959 0.42132,-1.416 -0.59381,-1.95686 -4.73906,-2.525 -2.9014,-0.39772 -5.64804,-0.34187 -6.103755,0.12401 -0.455718,0.46596 -1.385755,7.13917 -2.066899,14.82955 -1.073864,12.12368 -3.560736,29.28726 -6.807385,46.98098 -0.508053,2.76852 -1.475872,13.33924 -2.150718,23.49048 -0.674926,10.15127 -1.992921,26.00735 -2.928832,35.23575 -3.037999,29.95364 -6.971982,79.3763 -6.392862,80.31332 0.310409,0.50218 1.881584,0.75832 3.491521,0.5693 2.836571,-0.33314 2.987331,-0.74247 4.863782,-13.2076 z m 52.795148,5.09357 c 2.13016,-6.75762 9.87925,-17.78013 16.19435,-23.03521 5.94735,-4.94911 16.52219,-9.71489 25.21561,-11.36401 l 7.56293,-1.43467 -0.69726,-3.71687 c -0.38357,-2.04428 -1.64047,-10.6063 -2.79318,-19.02664 -1.15271,-8.42034 -5.11842,-34.94111 -8.81279,-58.93496 -5.96969,-38.77231 -8.45532,-57.29817 -9.3743,-69.86979 l -0.28307,-3.87265 -20.68682,0.33959 c -11.37769,0.18677 -21.00871,0.53853 -21.40217,0.78174 -0.39347,0.2432 -1.05532,3.34319 -1.47085,6.88885 -0.41545,3.5457 -3.44789,25.57467 -6.73883,48.95334 -6.34638,45.08397 -11.73903,86.84234 -14.66234,113.53734 -0.97686,8.92085 -2.17111,18.34441 -2.653925,20.94137 l -0.877703,4.72176 14.111578,0.34848 c 7.76142,0.19172 16.66237,0.45791 19.77999,0.59163 l 5.66835,0.24305 z M -37.744517,367.85443 c 0,-0.28464 -3.084142,-2.61196 -6.853661,-5.17183 -17.933537,-12.17841 -33.735115,-30.76292 -44.510113,-52.34909 -9.950714,-19.93487 -13.759839,-29.90455 -18.452569,-48.29611 -9.1286,-35.7765 -11.84108,-61.92882 -11.84108,-114.16495 0,-44.33813 3.15653,-91.531861 8.85541,-132.39845 1.19968,-8.6029772 1.95528,-15.86774755 1.67905,-16.14391963 -0.70165,-0.70170147 -57.63408,-2.52531557 -59.26764,-1.89846477 -0.76113,0.2920471 -1.53168,3.54430538 -1.79819,7.5895464 -0.91752,13.927002 -10.49769,27.912136 -23.60864,34.463722 -11.83836,5.91574 -24.68557,4.26302 -40.22196,-5.174271 -14.24419,-8.652298 -20.697,-17.746583 -21.78296,-30.6998125 -0.60277,-7.1900255 -0.83238,-7.7308074 -3.28237,-7.7308074 -1.44883,0 -2.63424,0.4281223 -2.63424,0.9513623 0,0.5232665 -1.26381,8.1996226 -2.80847,17.0585576 -5.06003,29.02032 -6.06317,36.014183 -7.84551,54.698767 -2.45853,25.773353 -3.31679,71.44139 -1.7821,94.82759 3.10944,47.38317 13.46152,94.12665 27.43025,123.85764 l 4.73004,10.06734 27.89047,-0.76628 c 15.33975,-0.42156 41.82673,-1.0559 58.85997,-1.40986 l 30.96948,-0.64339 1.74943,2.49764 c 2.41123,3.44252 2.37469,17.68221 -0.0586,22.80986 -2.99358,6.30854 -19.91021,24.34379 -25.82564,27.53337 -5.50844,2.97021 -11.91233,4.32376 -33.32982,7.04479 -6.76751,0.85984 -12.4601,1.58512 -12.65021,1.61171 -0.19013,0.0269 -0.0554,0.51795 0.29914,1.0918 2.23591,3.6177 57.76338,8.11925 123.651247,10.02414 16.918755,0.48919 31.138865,0.96766 31.600298,1.0632 0.461407,0.0956 0.838941,-0.0587 0.838941,-0.3438 z M -186.39934,267.80902 c -4.0699,-3.80185 -4.22359,-5.01976 -1.24915,-9.89822 3.14579,-5.15943 7.74147,-4.76404 10.68028,0.91898 2.28049,4.40991 2.05795,6.31182 -1.10911,9.4789 -3.48239,3.4824 -4.09887,3.44541 -8.32202,-0.49966 z m -44.74379,-1.11858 c -4.19161,-3.91552 -4.35208,-6.04578 -0.72843,-9.66944 4.44643,-4.4464 7.3087,-3.49001 10.18956,3.40487 1.82446,4.36663 1.81732,4.41034 -1.1376,6.95209 -3.7796,3.25109 -4.13904,3.22138 -8.32353,-0.68752 z m 23.83404,-0.46987 c -2.62412,-2.25719 -2.87894,-3.01594 -1.9494,-5.80459 0.58811,-1.7644 2.46113,-4.24532 4.16221,-5.51323 3.05366,-2.27605 3.11306,-2.27775 4.6835,-0.13388 2.0965,2.86189 2.02356,8.45799 -0.15071,11.56219 -2.18673,3.12195 -3.00315,3.10861 -6.7456,-0.11049 z m 46.03122,0.21568 c -1.57731,-1.24071 -2.86787,-3.39973 -2.86787,-4.79784 0,-3.09764 3.59252,-6.57919 6.256,-6.06282 3.97443,0.77057 4.87558,11.04598 1.09593,12.49635 -0.8889,0.34112 -2.90672,-0.39497 -4.48406,-1.63569 z m 19.21905,0.42334 c -2.21867,-2.48137 -2.62044,-4.54073 -1.62227,-8.31488 1.54424,-5.83882 8.21412,-5.05441 10.83556,1.27426 1.19049,2.87415 1.12459,3.8199 -0.43167,6.19504 -2.15796,3.29353 -6.24128,3.68667 -8.78162,0.84558 z m -94.42993,-29.02267 c -2.74592,-0.53491 -8.19581,-5.55532 -8.19581,-7.55002 0,-0.72141 0.62921,-2.10214 1.39824,-3.06834 1.24945,-1.56985 6.93103,-1.68193 53.38726,-1.05281 l 51.98904,0.70406 1.10127,3.13521 c 1.40655,4.0042 -0.18523,6.6911 -4.52541,7.63878 -3.557,0.77661 -91.24518,0.95465 -95.15459,0.19312 z m -7.92525,-33.93059 c -3.40423,-1.37586 -5.41707,-5.93915 -4.01034,-9.09174 l 1.08498,-2.43152 52.50312,0.25212 c 49.68875,0.23857 52.61774,0.36475 54.6418,2.35458 1.77036,1.74029 1.95583,2.74016 1.07691,5.80533 l -1.06177,3.70287 -50.8544,0.2146 c -28.63403,0.12089 -51.95805,-0.23138 -53.3803,-0.80624 z m 36.2635,-32.37904 -40.08969,-0.58717 -2.16315,-2.67279 c -2.0887,-2.5807 -2.02486,-6.01123 0.1556,-8.36136 0.50072,-0.53962 24.44014,-0.59918 54.19111,-0.13476 57.3568,0.89543 56.51997,0.796 56.51997,6.711 0,4.85807 -3.71334,6.16273 -16.74817,5.88402 -6.47679,-0.13851 -29.81635,-0.51602 -51.86567,-0.83894 z m -40.44912,-33.80383 c -4.27932,-2.42665 -5.16396,-6.20342 -2.15731,-9.21012 1.5485,-1.54842 8.06503,-1.75776 54.73123,-1.75776 46.66623,0 53.18276,0.20934 54.73126,1.75776 2.22805,2.22808 2.2335,4.89543 0.0164,8.06069 l -1.74133,2.48613 -51.67159,-0.0335 c -36.40317,-0.0243 -52.33265,-0.40891 -53.90874,-1.30265 z m -2.17377,-33.58862 c -2.29237,-3.27281 -2.19961,-5.701239 0.3043,-7.967236 1.84168,-1.666717 6.94301,-1.841475 51.17571,-1.753315 27.02152,0.05371 51.64693,0.431482 54.72305,0.838968 5.0247,0.665691 5.6284,1.047908 5.94159,3.761819 0.19174,1.661454 -0.20349,4.052434 -0.87831,5.313314 -1.21084,2.26245 -1.93619,2.2925 -55.37597,2.2925 h -54.14907 z m 52.05135,-28.554783 c -33.56361,-0.21 -49.02145,-0.687864 -50.0571,-1.547363 -1.86159,-1.545008 -1.94784,-5.665735 -0.15608,-7.457466 1.00774,-1.007745 15.09662,-1.342338 56.52508,-1.342338 h 55.18277 l 0.91561,2.475072 c 2.09045,5.65105 -1.72571,8.962707 -9.72962,8.443409 -2.26706,-0.147082 -25.97336,-0.404204 -52.68066,-0.571314 z M 7.3778414,360.00088 c 23.3624436,-4.94993 41.6130046,-15.7204 63.4831186,-37.46431 19.845364,-19.73074 32.21805,-37.67883 54.76774,-79.44709 11.09078,-20.54309 16.16777,-29.43592 21.39374,-37.47296 5.40348,-8.30993 8.03423,-13.1327 9.15289,-16.77892 0.68214,-2.22361 0.16938,-2.23721 -84.851852,-2.23721 h -85.538203 l -1.384168,3.35579 c -3.286442,7.96763 -17.215855,31.07213 -23.603584,39.15084 -1.459389,1.84568 -6.234351,8.18425 -10.611035,14.08573 -4.376738,5.90147 -14.022388,17.11382 -21.434822,24.91636 -7.412461,7.80254 -13.47716,14.38701 -13.47716,14.63222 0,0.24522 3.331659,7.15413 7.403676,15.35306 8.005022,16.11799 15.290244,27.98456 19.609117,31.94045 2.430754,2.22639 3.186721,2.36254 7.107,1.28013 2.508329,-0.69263 9.195223,-0.98181 15.615285,-0.67535 14.607354,0.69726 49.977462,5.27227 51.777396,6.69732 2.016284,1.59634 1.718734,5.37678 -0.559303,7.10613 -3.557825,2.70073 -19.0050201,1.73283 -48.37922,-3.03147 -9.56056,-1.55061 -14.427385,-3.07951 -18.177166,-5.71021 -7.820051,-5.48627 0.980228,5.12781 10.260012,12.37472 8.194808,6.39948 15.653861,10.10084 24.026945,11.92245 9.0002781,1.95807 14.1864553,1.95868 23.4195934,0 z M 35.523449,320.64131 c -2.460916,-0.20553 -11.521546,-1.11279 -20.134712,-2.01615 -13.3438108,-1.39944 -26.036508,-2.4102 -68.794894,-5.47865 -3.384444,-0.24289 -8.040608,-1.22999 -10.346981,-2.19369 -3.739092,-1.56228 -4.193434,-2.18628 -4.193434,-5.75937 0,-2.74796 0.600763,-4.23783 1.911614,-4.74088 1.051402,-0.40344 14.013127,0.40748 28.803812,1.80197 14.790711,1.39459 40.7347995,3.64614 57.653554,5.00348 16.918755,1.35734 31.390563,2.85713 32.159601,3.33288 2.412153,1.49199 1.532308,4.89551 -2.04335,7.90422 -3.453474,2.90594 -4.362689,3.0359 -15.01521,2.14619 z m 7.270855,-30.67296 c -8.305561,-0.49329 -29.447013,-1.68534 -46.9809767,-2.64896 -43.4683163,-2.38892 -44.6983113,-2.53597 -45.8103283,-5.4779 -0.498475,-1.31874 -0.450876,-3.26703 0.105754,-4.32964 2.182363,-4.16587 4.788535,-4.48644 25.97359,-3.19461 16.9955631,1.03643 44.411291,2.52095 91.00087,4.92778 11.509639,0.59458 14.434714,3.74373 8.546332,9.20089 -3.335496,3.09129 -5.06976,3.17164 -32.835241,1.52244 z m 14.448499,-30.54763 c -0.256328,-0.24614 -19.342364,-1.03314 -42.413369,-1.74887 -37.897276,-1.17559 -42.146325,-1.49632 -44.008516,-3.32256 -1.909048,-1.872 -1.932754,-2.26967 -0.321019,-5.38644 0.957104,-1.8508 2.426203,-3.62835 3.264668,-3.95008 0.838464,-0.32174 12.057009,-0.16619 24.9300993,0.34573 12.8730907,0.51191 39.5134037,1.28375 59.2006527,1.71513 19.687275,0.43148 36.675932,1.23928 37.752575,1.79527 2.770955,1.43089 2.426467,5.03928 -0.788115,8.25378 -2.67708,2.67708 -3.175158,2.74572 -19.948207,2.74572 -9.4615,0 -17.412414,-0.20143 -17.668769,-0.44768 z m 4.008305,-31.69739 c -4.921805,-0.20579 -23.14395,-0.73374 -40.493632,-1.17316 -21.62801996,-0.54777 -31.956321,-1.21052 -32.853576,-2.10812 -0.999199,-0.9996 -0.813912,-2.3222 0.783537,-5.593 l 2.0921925,-4.28374 9.50806652,-0.37962 C 11.779264,213.72687 106.96351,216.0859 111.30932,216.93717 c 4.7512,0.93075 5.40425,5.50894 1.26823,8.89124 -3.13933,2.56736 -3.75764,2.63387 -22.802295,2.45401 -10.766451,-0.10168 -23.602315,-0.35327 -28.524147,-0.55909 z m -238.892398,114.4716 c 4.57439,-0.96512 8.79846,-2.23621 9.38684,-2.82456 0.68067,-0.68064 0.32411,-2.61935 -0.98023,-5.32982 -2.25589,-4.68778 -2.78858,-14.59079 -1.21602,-22.60658 l 0.96588,-4.92353 -5.44028,0.7688 c -35.04867,4.95316 -100.4403,5.59277 -124.01132,1.21304 -3.32311,-0.61746 -3.30591,-0.57677 1.76647,4.18015 14.07641,13.20072 38.41358,27.1263 53.604,30.67177 8.73196,2.03806 54.60867,1.23828 65.92466,-1.14927 z m 409.47813,-11.87831 c 13.40242,-1.39105 20.2968,-4.63457 34.54221,-16.25071 6.86524,-5.59813 10.76835,-8.10943 11.29053,-7.26453 0.47308,0.76546 1.86196,-1.1257 3.4103,-4.64365 2.60384,-5.91616 2.61524,-6.15056 3.57796,-73.61004 0.53112,-37.22118 1.07661,-91.58716 1.21219,-120.81311 l 0.24656,-53.138178 3.13037,-6.398207 c 5.2143,-10.657734 16.505,-18.840978 30.81591,-22.334854 8.9081,-2.174796 52.88574,-5.320586 74.87309,-5.355828 12.72,-0.02011 21.46906,1.621763 21.46906,4.029445 0,1.769348 2.03996,1.989323 4.42986,0.477705 2.48799,-1.573768 -1.15403,-4.992396 -9.91534,-9.307089 l -7.32599,-3.60799 H 367.7723 c -148.14555,0 -409.231144,0.799941 -433.668695,1.328737 l -29.82976,0.645398 -0.635344,6.283775 c -5.133891,50.776716 -7.394761,83.695966 -8.159911,118.812656 l -0.67267,30.87129 4.51175,0.72149 c 2.481474,0.39682 77.935904,0.74464 167.676511,0.77301 174.285429,0.0554 169.188339,0.20235 179.610729,-5.18729 5.70801,-2.95175 14.26149,-12.35861 17.32817,-19.05725 3.87133,-8.45608 5.09778,-24.08497 5.25425,-66.957469 l 0.1224,-33.557844 3.27877,-5.593001 c 7.10142,-12.113551 22.09969,-23.530666 29.83777,-22.713474 3.23062,0.341128 3.22501,0.35179 -4.64891,8.726567 -8.19893,8.720429 -12.1821,14.612514 -15.32326,22.666563 -1.59822,4.09792 -1.86674,10.604368 -1.9734,47.809362 -0.13674,47.714796 -0.22608,48.423616 -7.82852,62.082016 -6.38992,11.48003 -14.09993,17.23615 -30.84671,23.02939 -6.03086,2.08629 -10.33163,2.565 -27.02724,3.00812 l -19.85499,0.52703 -0.21487,22.51278 c -0.11811,12.38203 -0.27474,31.57342 -0.3479,42.6475 -0.073,11.07408 -0.50395,21.23614 -0.95724,22.58242 -0.80438,2.38914 -2.88782,3.36921 -12.46245,5.86237 -2.46089,0.6408 -8.753,4.2105 -13.98247,7.93266 -18.6831,13.29815 -29.4138,16.75577 -52.00157,16.75577 h -9.33313 l -3.64109,4.75406 c -2.002656,2.61464 -5.497114,6.76744 -7.765625,9.2284 -4.730644,5.132 -5.755772,7.38106 -4.379966,9.60946 0.770467,1.24793 6.168681,1.70709 25.903871,2.20332 43.66329,1.09794 105.10671,1.04994 116.09604,-0.0908 z m -4.07844,-75.11907 c -7.9329,-2.08703 -13.69243,-11.83549 -12.07773,-20.4425 0.39492,-2.10484 2.41459,-5.80903 4.48821,-8.23166 10.54991,-12.32519 28.44689,-5.47957 28.44689,10.88104 0,3.18784 -0.7475,7.24154 -1.66103,9.00819 -3.35023,6.47858 -12.33458,10.59018 -19.19634,8.78493 z M 178.53759,151.26129 c -1.93693,-0.56118 -5.08299,-2.79847 -6.99127,-4.97176 -6.20744,-7.06996 -3.88181,-18.07872 4.67738,-22.14028 5.2451,-2.48899 7.5751,-2.35747 12.08585,0.68239 7.16301,4.82713 8.68278,12.90132 3.78508,20.10894 -2.28931,3.36896 -8.19028,7.89617 -9.70005,7.4418 -0.18441,-0.0554 -1.92003,-0.55999 -3.85699,-1.12109 z m -41.06397,-2.01959 c -10.18328,-6.71367 -9.66263,-20.1666 0.97587,-25.21487 7.92485,-3.76066 16.19133,-0.0344 18.43852,8.31061 1.45499,5.40364 -0.14431,10.64773 -4.67217,15.31932 -4.23442,4.3688 -9.63848,4.94977 -14.74222,1.58494 z m 74.69825,0.0135 c -6.9983,-4.26754 -8.79726,-14.24723 -3.72962,-20.68967 2.67013,-3.39453 9.17094,-6.48605 11.82696,-5.62436 6.50695,2.11111 8.41179,3.31441 10.43911,6.59477 7.60026,12.29746 -6.35754,27.14596 -18.53645,19.71926 z M 37.20133,146.05035 C 22.766167,142.13615 14.283096,134.84588 7.3180455,120.36886 1.7376656,108.76984 1.0816841,98.037044 5.1661893,85.161386 8.7355772,73.90961 13.690641,66.889896 22.794133,60.188318 30.866147,54.245962 38.312395,51.80481 48.310655,51.822855 61.554374,51.846403 70.864744,55.391317 79.911589,63.853591 101.60054,84.140968 101.80147,114.12048 80.384346,134.3759 68.016769,146.07265 52.6272,150.23317 37.20133,146.05035 Z m 24.741373,-17.26409 c 10.340684,-4.36277 18.001032,-16.2982 18.113189,-28.22189 0.180631,-19.196871 -13.575003,-33.778428 -31.668613,-33.570016 -16.570193,0.190765 -28.70917,12.915979 -29.945806,31.39186 -0.465799,6.959306 -0.149067,8.826866 2.465758,14.538436 3.371294,7.36383 6.091078,10.63598 11.74533,14.13052 8.850974,5.47018 19.005259,6.07028 29.290142,1.73109 z M 40.826545,114.52342 c -4.26077,-2.67558 -7.801213,-8.03577 -8.800359,-13.32389 -1.651635,-8.741332 5.780326,-20.306534 13.04925,-20.306534 h 3.623469 l -0.659527,5.568685 c -0.774832,6.542167 1.217586,9.78371 4.826423,7.852278 3.301392,-1.766835 7.277629,-1.310429 10.471653,1.20195 4.851294,3.816111 3.450299,10.422731 -3.639609,17.162991 -4.614386,4.38687 -13.447632,5.25021 -18.8713,1.84452 z m 97.607595,-1.12705 c -1.23042,-0.50194 -3.58952,-2.26851 -5.24232,-3.92575 -5.56784,-5.58245 -5.42396,-13.824087 0.34187,-19.589914 4.40933,-4.409334 9.73613,-5.349954 15.1266,-2.671101 11.38668,5.65867 11.27201,19.470585 -0.20789,25.027835 -4.92863,2.38588 -6.55066,2.57358 -10.01826,1.15893 z m 36.64106,-0.0963 c -6.89893,-2.77362 -9.3795,-15.982339 -4.1652,-22.179225 3.82148,-4.541467 9.37932,-6.326479 14.46853,-4.646904 11.9362,3.939276 12.9327,19.300379 1.66295,25.634319 -4.42827,2.48883 -7.88408,2.83305 -11.96628,1.19181 z m 39.18196,0.39942 c -3.42609,-0.70882 -7.91093,-6.35535 -8.79626,-11.07483 -1.54022,-8.210017 5.3951,-17.257206 13.22883,-17.257206 8.63343,0 15.91706,7.225003 14.98451,14.863946 -1.16387,9.53267 -9.72767,15.47276 -19.41708,13.46809 z m -275.069004,-5.33032 c -11.143007,-4.84969 -8.738394,-21.883164 3.089248,-21.883164 5.645917,0 9.740318,2.018771 11.672491,5.75519 3.443419,6.658876 1.062566,13.313654 -5.787126,16.175624 -4.48183,1.87261 -4.56356,1.87219 -8.974613,-0.0478 z M 137.80702,74.580434 c -7.22106,-4.484158 -9.81818,-13.652076 -5.44308,-19.214226 9.35828,-11.89699 25.64566,-7.417197 25.64566,7.053791 0,9.998049 -12.02698,17.237313 -20.20258,12.160435 z m 35.70849,-1.329637 c -2.98532,-2.66745 -3.62694,-4.150016 -4.06101,-9.384532 -0.48374,-5.833375 -0.28112,-6.472397 3.28657,-10.365449 3.06795,-3.347641 4.81656,-4.263178 9.05516,-4.740963 6.39042,-0.720328 10.34412,1.470581 12.66113,7.01585 2.84554,6.810402 2.10357,10.350844 -3.30208,15.756414 -4.18661,4.186608 -5.54585,4.886536 -9.49042,4.886536 -3.4744,0 -5.4737,-0.777213 -8.14935,-3.167856 z m 38.30971,1.606815 c -3.60418,-1.997604 -5.62856,-5.948707 -5.67648,-11.078686 -0.0848,-9.103334 6.1786,-15.325117 15.42772,-15.325117 4.76218,0 6.1296,0.5157 9.01322,3.399314 6.73372,6.733725 5.37908,16.313388 -3.11298,22.014048 -4.31565,2.897028 -11.40246,3.345444 -15.65148,0.990441 z m 87.12731,254.363178 c 3.99894,-0.5907 16.57567,-1.86581 27.94834,-2.83363 21.42635,-1.82343 48.61163,-5.95257 59.30207,-9.00726 16.32397,-4.66445 28.01048,-17.60929 34.30124,-37.99478 1.91706,-6.21247 2.04727,-12.15289 1.96564,-89.70295 -0.0478,-45.67742 -0.41703,-83.37941 -0.81981,-83.78229 -0.40277,-0.40278 -2.37691,-0.26091 -4.38692,0.31528 l -3.65464,1.04769 -0.5906,83.29382 c -0.54499,76.84672 -0.74944,83.7702 -2.6416,89.44625 -3.23514,9.70452 -7.13701,16.58036 -12.39007,21.83342 -9.06044,9.06044 -16.46775,11.33483 -49.22271,15.11326 -31.96016,3.68676 -51.10903,6.56411 -59.31543,8.91281 -4.30464,1.23209 -7.95404,2.24007 -8.10985,2.24007 -0.15579,0 -0.28321,0.50337 -0.28321,1.11855 0,1.40457 8.38726,1.40441 17.89755,-2.4e-4 z M 142.80159,284.13844 c 11.982,-6.73264 38.69849,-28.72954 38.69849,-31.86226 0,-1.99761 -5.50752,-1.65624 -13.58495,0.84196 -6.68867,2.06867 -9.60753,3.69196 -21.03819,11.69995 -3.61863,2.53513 -6.35256,3.41686 -12.13903,3.91512 l -7.46855,0.64304 -4.75959,7.27088 c -2.61776,3.99894 -4.76187,7.86816 -4.76464,8.59819 -0.0127,3.45496 18.38425,2.64219 25.05646,-1.10688 z M -79.740639,255.11418 c 5.044414,-5.07564 12.080346,-13.11952 15.635394,-17.87543 l 6.46377,-8.64693 -1.389697,-19.87724 c -0.764355,-10.9324 -1.698731,-20.21491 -2.076424,-20.62784 -0.377692,-0.41283 -10.262817,-1.02881 -21.966925,-1.36875 l -21.280229,-0.61812 1.34014,13.11408 c 2.7322,26.73535 10.400114,65.12863 13.00753,65.12863 0.602165,0 5.222054,-4.15279 10.266441,-9.2284 z m 445.717609,5.66565 c 16.28545,-1.07688 19.82052,-1.6248 21.53298,-3.33727 2.39593,-2.39593 2.67748,-7.47281 0.57399,-10.34956 -1.35874,-1.85817 -2.34879,-1.92059 -12.58419,-0.79253 -37.39444,4.12106 -51.66053,5.78897 -53.82115,6.29234 -3.07843,0.7172 -4.11035,3.83942 -2.59043,7.83717 l 1.17655,3.09446 13.11397,-0.72803 c 7.21278,-0.40045 21.88199,-1.30794 32.59828,-2.01658 z M 333.07299,91.696356 c -1.02703,-4.616132 -2.54762,-9.312804 -3.37918,-10.437071 -1.40507,-1.899629 -1.62756,-1.767311 -3.14815,1.870921 -4.80827,11.50456 -5.62641,19.868784 -1.54426,15.78663 1.90323,-1.903306 7.16722,-1.511776 7.97494,0.593143 0.38785,1.010841 0.98845,1.554821 1.33461,1.208671 0.34613,-0.34616 -0.21101,-4.40616 -1.23796,-9.022294 z m -5.59083,0.391451 c -0.37719,-0.610314 -0.17055,-1.994588 0.45923,-3.076072 0.98235,-1.686798 1.14996,-1.528974 1.17915,1.109663 0.0352,3.216857 -0.48181,3.83786 -1.63838,1.966409 z m 16.6057,5.584112 c 0.72726,-3.636487 4.08281,-4.739615 4.08281,-1.342311 0,1.967336 1.97562,4.698102 3.39889,4.698102 1.26389,0 0.56883,-17.733568 -0.74658,-19.048706 -0.69455,-0.694372 -3.33724,-1.540801 -5.87261,-1.880817 l -4.60983,-0.618304 v 10.773912 c 0,8.395839 0.33951,10.773915 1.53802,10.773915 0.84601,0 1.84015,-1.510111 2.2093,-3.355791 z m -0.39156,-10.00133 c 0,-2.938992 1.49241,-3.653684 3.92115,-1.877722 2.36281,1.72765 1.35954,4.048919 -1.74995,4.048919 -1.40346,0 -2.1712,-0.767715 -2.1712,-2.171197 z m 28.19977,3.079194 c -0.24575,-5.113628 -0.66847,-9.524894 -0.93946,-9.802918 -0.27098,-0.277945 -1.81657,0.922337 -3.43455,2.667264 -3.13775,3.383889 -3.05806,3.411988 -6.65134,-2.344525 -0.93273,-1.49442 -1.63018,-1.72302 -2.5582,-0.838518 -1.50961,1.438698 -0.33843,19.773184 1.20229,18.821004 0.52819,-0.326443 0.96041,-1.876134 0.96041,-3.443711 0,-2.182681 0.4299,-2.685231 1.83555,-2.145772 1.00949,0.387324 2.96524,-0.03609 4.34615,-0.940726 3.17759,-2.082006 3.88567,-1.337865 3.88567,4.083924 0,2.394691 0.40505,4.103605 0.90011,3.797725 0.49496,-0.30597 0.69901,-4.740118 0.45337,-9.853747 z m 8.45531,6.700071 1.35044,-3.577855 3.35748,3.216699 c 1.84661,1.769163 3.71451,2.859616 4.15084,2.423292 0.43635,-0.436351 0.16679,-3.1682 -0.59899,-6.070707 -0.76581,-2.902585 -1.90082,-7.197566 -2.52222,-9.544446 -0.6214,-2.346934 -1.67529,-4.085246 -2.34199,-3.862996 -1.43042,0.476779 -6.46888,14.837013 -6.48306,18.477019 -0.0143,3.62299 1.51826,3.09647 3.0875,-1.061006 z m -65.22788,-4.88032 c -0.7356,-6.869112 -0.63376,-7.379361 1.58887,-7.960598 1.36025,-0.355706 2.37488,-1.521089 2.37488,-2.727748 0,-1.807924 -0.87276,-2.106745 -6.15233,-2.106745 -5.4065,0 -6.15223,0.271145 -6.15223,2.237211 0,1.44526 0.74573,2.237131 2.10675,2.237131 2.48086,0 3.4495,2.887663 3.47099,10.347061 0.0116,4.089771 0.42214,5.313284 1.78215,5.313284 1.51053,0 1.65283,-1.065107 0.98092,-7.339596 z m 89.16855,5.488385 c 2.62204,-2.373048 2.60207,-3.741791 -0.0545,-3.741791 -2.83657,0 -4.86379,-2.668852 -4.41394,-5.811043 0.27482,-1.919579 1.01118,-2.510288 2.88234,-2.311877 1.50853,0.159914 2.51317,-0.344302 2.51317,-1.261348 0,-2.274808 -2.66525,-4.067386 -7.12316,-4.79089 l -3.96714,-0.643731 0.51152,4.053708 c 0.28131,2.229511 0.74163,5.877904 1.02293,8.107495 0.50991,4.041378 3.28859,8.250688 5.44643,8.250688 0.62526,0 2.05734,-0.833068 3.18246,-1.851211 z m 2.8285,-37.893016 c 8.74334,-4.285748 29.33107,-17.466019 36.99224,-23.682431 11.00111,-8.926407 27.42928,-31.4890913 35.06258,-48.155248 4.37468,-9.551485 9.23621,-24.139525 11.6486,-34.954027 3.39707,-15.227961 3.36249,-56.822767 -0.0503,-60.235177 -0.32197,-0.32197 -1.84843,-0.11416 -3.39217,0.46178 l -2.8067,1.04717 -0.43743,24.049803 c -0.28491,15.660264 -1.01336,26.586206 -2.08831,31.320634 -5.96667,26.279054 -19.94887,53.750265 -36.61505,71.938461 -8.55927,9.340903 -15.58224,14.770391 -33.50381,25.901703 -14.84707,9.221681 -20.13472,13.435647 -20.13472,16.046344 0,2.372545 5.68764,0.984858 15.3247,-3.739012 z M -199.2501,27.021422 c 13.6375,-6.410378 18.68895,-25.1454679 11.01109,-40.83854 -6.18342,-12.638405 -19.72268,-17.950524 -34.50318,-13.537168 -7.04119,2.102405 -15.70685,11.13618 -17.92195,18.6832606 -4.82126,16.4266296 1.52424,28.1460544 19.16827,35.4016704 8.15779,3.354705 15.52282,3.451013 22.24577,0.290777 z m -25.48189,-12.040314 c -3.54427,-3.644609 -6.77121,-7.9296923 -7.17095,-9.5223517 -1.33217,-5.30785906 0.56296,-12.7671775 4.3351,-17.0634283 6.24451,-7.112159 14.12891,-8.8528 21.97293,-4.851109 5.37551,2.742432 8.63719,6.7973836 10.23226,12.7210339 1.59795,5.934366 0.68061,11.1833024 -2.9001,16.5941611 -3.84895,5.816097 -8.87831,8.738896 -15.04627,8.744082 -4.60931,0 -5.45704,-0.487574 -11.42297,-6.622388 z M -80.599264,-0.76421713 c 9.98257,0 9.980771,1.09910561 0.02514,-15.49886787 -13.284147,-22.147504 -24.641606,-33.210688 -43.723006,-42.590352 -25.0595,-12.318259 -43.25855,-9.604004 -60.50456,9.0238 -6.5685,7.094699 -8.72263,11.824602 -6.06886,13.325398 6.00311,3.395027 11.52766,8.613695 14.14764,13.364157 l 3.06901,5.564716 40.54906,0.01587 40.54906,0.01588 v 9.0684352 c 0,7.80965325 0.245613,8.97419032 1.769374,8.38946116 0.973164,-0.37343291 5.557335,-0.67897374 10.187041,-0.67897374 z M 298.39323,-42.431647 c 0,-55.323556 2.55474,-80.742523 11.83291,-117.732333 13.01565,-51.89032 27.63589,-84.43976 48.86978,-108.80024 l 7.08364,-8.12663 -141.27826,0.2965 -141.278295,0.29657 -8.888201,3.83095 c -25.906888,11.16653 -45.600461,31.54151 -58.220345,60.23483 -12.9845588,29.52258 -21.7840448,64.92939 -27.028827,108.75704 -2.127171,17.775498 -2.876524,80.061961 -1.133793,94.2416701 l 0.927973,7.5504938 154.556728,1.852e-4 154.55669,2.382e-4 z m -156.6033,-61.952903 c -8.35819,-1.27243 -21.47671,-5.24626 -27.71468,-8.39518 -8.46127,-4.27124 -19.189965,-14.33851 -22.74189,-21.33975 -1.630257,-3.21342 -2.676657,-7.21972 -2.676657,-10.24758 0,-4.17812 0.549169,-5.43351 3.441594,-7.86728 4.344643,-3.6558 11.148743,-3.96587 14.455883,-0.65876 2.42247,2.42247 2.90041,5.05105 1.11866,6.15225 -4.61884,2.85459 3.69638,12.39954 16.08695,18.46612 14.89634,7.29332 29.54642,8.34559 45.89389,3.29639 8.71707,-2.69243 19.63962,-9.65785 22.68365,-14.46551 2.04679,-3.23273 2.139,-3.98751 0.8018,-6.56501 -2.32733,-4.48593 0.0979,-7.35195 6.58447,-7.78115 4.28844,-0.28374 5.66817,0.1683 8.65214,2.83445 4.63558,4.14197 4.77065,9.38279 0.43246,16.78943 -7.22432,12.33427 -21.44538,22.33575 -38.4655,27.05232 -8.41488,2.33186 -22.38914,3.6676 -28.55277,2.72926 z m 114.09667,-20.45184 c -7.98979,-1.95699 -12.89804,-6.88798 -13.66174,-13.72497 -0.66243,-5.93011 2.27169,-10.22811 9.09945,-13.3291 9.01239,-4.09321 22.95744,-1.51591 29.53535,5.45867 4.22913,4.48426 4.27879,7.93872 0.19664,13.67155 -4.15462,5.83462 -17.08285,9.9047 -25.1697,7.92385 z m -227.320714,-2.94167 c -12.582498,-6.27012 -13.322644,-17.93031 -1.520349,-23.95133 9.331934,-4.76078 25.937395,-2.24477 30.775884,4.66321 6.5827,9.39811 -4.651455,22.10832 -19.561519,22.13173 -2.186305,0 -6.548623,-1.27621 -9.694016,-2.84361 z m 198.837384,-34.21626 c -9.24761,-2.75426 -15.54088,-11.14152 -16.46187,-21.93935 -0.48474,-5.68378 -0.11443,-7.2771 3.1822,-13.69127 3.23061,-6.28581 4.53517,-7.67291 9.73119,-10.34698 17.55611,-9.03536 35.9469,1.40272 35.9469,20.40234 0,6.86761 -1.881,11.66561 -6.74537,17.20586 -6.48917,7.39068 -17.20284,10.88606 -25.65305,8.3694 z m 3.23943,-29.45127 c 5.67624,-2.93524 5.44309,-9.68161 -0.46839,-13.55495 -3.13941,-2.057 -6.36826,-1.35834 -9.5613,2.06902 -3.05141,3.27533 -2.75191,6.03268 1.07042,9.85501 3.73716,3.73716 4.58711,3.89186 8.95927,1.63092 z m -161.616837,28.08983 c -8.063309,-3.65286 -13.255731,-13.452 -12.598373,-23.77556 0.909134,-14.27753 11.382824,-23.94043 25.925012,-23.91818 24.914278,0.0377 31.656128,29.28459 10.288773,44.63286 -4.779989,3.43347 -6.507216,4.00896 -12.862825,4.28617 -4.51604,0.1969 -8.654229,-0.27459 -10.752587,-1.22529 z m 11.424179,-31.6067 c 3.757295,-5.73429 -1.976887,-12.87589 -8.773292,-10.92676 -8.068945,2.31412 -9.915419,11.40304 -2.91465,14.34663 4.356708,1.83192 9.169585,0.42368 11.687942,-3.41987 z M 58.454621,-221.9861 c -3.682576,-1.21111 -5.592974,-4.0209 -5.592974,-8.22611 0,-5.73294 5.474917,-11.16026 16.576384,-16.43226 6.955102,-3.30304 9.969103,-4.06906 17.581536,-4.46866 11.158828,-0.58568 16.032693,0.84431 20.597313,6.04319 4.09749,4.66672 4.27183,7.15746 0.78491,11.21132 l -2.62681,3.05385 -6.675015,-1.87285 c -3.671226,-1.03016 -8.186499,-1.87296 -10.033952,-1.87296 -5.610357,0 -14.38574,3.15058 -18.987293,6.81678 -5.669571,4.51731 -9.542383,6.43228 -11.624099,5.7477 z m 204.299339,-4.10136 c -8.24457,-6.40199 -12.57003,-7.79463 -21.248,-6.84083 -14.34404,1.57644 -15.55726,1.4491 -17.40839,-1.82647 -1.52662,-2.70142 -1.5127,-3.38474 0.13986,-6.85009 2.95905,-6.20509 10.29076,-9.16533 22.70046,-9.16533 8.73627,0 10.90168,0.40977 16.37792,3.09907 10.26154,5.03931 16.37135,12.81811 15.57702,19.83211 -0.26149,2.30994 -5.35876,6.71158 -7.77208,6.71158 -1.0886,0 -4.85362,-2.23203 -8.36679,-4.96004 z m 60.60681,223.2338548 c 1.22015,-0.7736946 1.1715,-4.5823452 -0.27972,-21.9024458 -4.38634,-52.351175 -0.0846,-101.685729 12.83084,-147.153189 4.53501,-15.96487 14.85146,-44.6805 19.06807,-53.0756 7.13121,-14.1978 16.09,-26.83872 22.19936,-31.3233 10.1083,-7.42022 24.08976,-10.30536 35.11008,-7.24522 13.52095,3.75462 25.64749,27.08831 23.92875,46.04321 -1.1575,12.76514 -9.31878,25.57201 -19.80837,31.08378 -4.4481,2.33723 -14.71713,1.86373 -19.14649,-0.88296 -9.40184,-5.83002 -16.40158,-17.51611 -17.45581,-29.1424 -0.72099,-7.95078 2.26676,-15.01101 8.88119,-20.98675 4.32702,-3.90922 4.77679,-4.0527 11.24027,-3.58516 5.98958,0.43326 7.1333,0.92395 10.35973,4.44458 2.67539,2.91936 3.83339,5.45952 4.41428,9.68295 1.00656,7.31864 -0.18724,14.36955 -2.89068,17.07298 -2.70483,2.70492 -3.81016,2.66483 -6.71861,-0.24373 -2.006,-2.00599 -2.29066,-3.35645 -1.88619,-8.94869 0.44479,-6.14915 0.31617,-6.58624 -1.93839,-6.58624 -5.27177,0 -9.03764,7.85095 -7.1423,14.88988 1.53403,5.69669 8.57261,13.07496 12.47312,13.07496 7.38156,0 16.54109,-11.42963 17.39313,-21.70403 1.33567,-16.10686 -10.58969,-32.01149 -23.97675,-31.97752 -5.56181,0.0143 -14.51595,4.28157 -19.09393,9.09987 -4.74942,4.99888 -12.61697,20.32196 -12.61697,24.57326 0,1.84885 0.43976,3.08983 0.97719,2.7577 0.53744,-0.33224 1.85441,2.53243 2.92658,6.36582 2.92685,10.46427 6.37037,16.40961 13.30092,22.96422 7.97182,7.53943 12.63251,9.53227 22.50549,9.62297 9.56463,0.0878 14.56115,-2.09023 22.16134,-9.66089 9.70568,-9.66793 15.72469,-28.29589 13.40384,-41.48296 -1.91331,-10.87154 -7.93366,-26.00137 -12.79184,-32.14748 -10.06652,-12.73503 -26.89778,-17.92944 -41.92431,-12.93847 -7.66974,2.54746 -19.96247,12.28492 -26.75617,21.19437 -11.31168,14.83442 -21.82427,37.52977 -31.18096,67.3156 -15.8695,50.51849 -22.24255,112.153176 -17.84118,172.543292 l 0.67258,9.2284019 4.06243,-0.016669 c 2.23436,-0.00926 4.72713,-0.4385998 5.53948,-0.9536113 z M -41.67731,-29.514741 c -6.850539,-23.565144 -32.323405,-51.748454 -59.26783,-65.574283 -24.00819,-12.319186 -51.94956,-16.455946 -73.58867,-10.894906 -14.97578,3.84868 -25.51517,10.152168 -38.37516,22.951731 -10.0479,10.000667 -11.93811,12.542149 -17.17726,23.096114 -3.55147,7.154174 -6.12441,13.965581 -6.48549,17.169026 l -0.59851,5.310029 3.46046,-1.789483 c 2.59185,-1.3403 4.56205,-4.105542 7.84926,-11.016697 13.4457,-28.268797 36.47236,-45.763179 65.10686,-49.4647 6.06198,-0.78356 24.71825,1.115298 34.08085,3.468872 8.09715,2.035466 27.111854,10.919407 36.005055,16.82205 8.400812,5.575802 18.823278,15.38007 27.630913,25.991899 7.533164,9.076319 9.961113,12.645022 17.576324,25.834607 5.387022,9.330319 6.837018,8.60044 3.783198,-1.904259 z m 564.34875,-90.986299 c 0,-5.94227 -3.82441,-20.3233 -7.32255,-27.53524 -13.56125,-27.95786 -50.82723,-34.38797 -50.83839,-8.77191 0,6.99293 2.91653,13.05491 6.96344,14.45839 1.67989,0.58256 3.3978,0.71562 3.81769,0.29581 0.41982,-0.4199 1.07461,-4.56857 1.455,-9.21944 0.73433,-8.97797 1.73133,-10.5292 6.77408,-10.54034 4.58173,-0.0101 13.69872,4.89911 18.03818,9.71315 4.68214,5.19417 11.44087,16.87079 14.6313,25.27729 2.33973,6.16508 3.8999,8.60665 5.4997,8.60665 0.53986,0 0.98155,-1.02795 0.98155,-2.28436 z m -33.55784,-1.91214 c 2.77794,-1.38769 4.01521,-2.82136 4.25984,-4.93585 0.43466,-3.75846 -2.49359,-4.88628 -8.41613,-3.2416 -2.32825,0.64656 -7.00169,1.17644 -10.38539,1.17763 -7.08314,0 -11.66866,-2.29417 -15.98235,-8.00422 -2.94629,-3.90001 -6.38958,-13.92995 -6.38958,-18.61236 0,-2.3513 -0.24323,-2.52857 -1.75165,-1.27669 -5.16413,4.28582 -6.43815,13.90912 -2.78857,21.0629 2.63363,5.16247 8.94863,10.88382 15.09374,13.67491 6.18286,2.80821 20.87626,2.89478 26.36009,0.15528 z"
       id="path1" />
  </g>
</svg>
